<svg xmlns="http://www.w3.org/2000/svg" width="1920" height="167" viewBox="0 0 1920 167" fill="none">
  <path fill-rule="evenodd" clip-rule="evenodd" d="M0 0.577148L79.5 6.83004C160.5 13.0829 319.5 25.5887 480 46.7523C640.5 68.3969 799.5 99.1804 960 105.433C1120.5 111.686 1279.5 92.9275 1440 87.1556C1600.5 80.9027 1759.5 87.1556 1840.5 90.0415L1920 92.9275V167H1840.5C1759.5 167 1600.5 167 1440 167C1279.5 167 1120.5 167 960 167C799.5 167 640.5 167 480 167C319.5 167 160.5 167 79.5 167H0V0.577148Z" fill="#29A19C" fill-opacity="0.8"/>
</svg>