<svg xmlns="http://www.w3.org/2000/svg" width="1920" height="167" viewBox="0 0 1920 167" fill="none">
    <path fill-rule="evenodd" clip-rule="evenodd" d="M0 67.1464L64 80.4602C128 93.774 256 120.402 384 113.745C512 107.088 640 67.1464 768 40.5187C896 13.891 1024 0.577148 1152 0.577148C1280 0.577148 1408 13.891 1536 37.1902C1664 60.4894 1792 93.774 1856 110.416L1920 127.059V167H1856C1792 167 1664 167 1536 167C1408 167 1280 167 1152 167C1024 167 896 167 768 167C640 167 512 167 384 167C256 167 128 167 64 167H0V67.1464Z" fill="#A3F7BF" fill-opacity="0.8"/>
</svg>